<svg enable-background="new 0 0 32 32" viewBox="0 0 32 32" xmlns="http://www.w3.org/2000/svg"><path d="m16.002 31.359c-1.025 0-1.859-.834-1.859-1.859 0-.902.646-1.657 1.5-1.825v-2.329c-2.239-.183-4.003-2.062-4.003-4.346v-2.073c-2.013 1.4-3.28 3.708-3.28 6.265v5.808h-.72v-5.809c0-3.572 2.259-6.701 5.591-7.884-1.33-.906-2.152-2.422-2.152-4.064 0-2.015 1.217-3.75 2.955-4.51.11-.379.166-.773.166-1.172 0-1.478-.791-2.852-2.043-3.605-.367.826-1.196 1.403-2.157 1.403s-1.79-.577-2.157-1.402c-1.253.752-2.043 2.126-2.043 3.604 0 1.656.98 3.162 2.496 3.836.141.063.226.209.212.363-.014.153-.125.281-.275.316-3.458.819-5.873 3.875-5.873 7.432v6.492h-.72v-6.491c0-3.597 2.257-6.726 5.586-7.887-1.326-.907-2.146-2.421-2.146-4.061 0-1.801 1.001-3.469 2.572-4.325-.008-.078-.012-.156-.012-.236 0-1.302 1.059-2.36 2.36-2.36s2.36 1.058 2.36 2.36c0 .08-.004.159-.012.236 1.571.856 2.572 2.525 2.572 4.325 0 .304-.027.605-.083.901.745-.182 1.579-.182 2.324 0-.055-.296-.083-.597-.083-.901 0-1.326.53-2.583 1.468-3.505l-.802-.802c-.108-.109-.137-.275-.067-.414.044-.09 1.124-2.2 4.322-2.2s4.278 2.11 4.322 2.2c.068.139.041.305-.067.414l-.802.802c.938.922 1.468 2.18 1.468 3.505 0 1.64-.82 3.154-2.146 4.061 3.329 1.162 5.586 4.291 5.586 7.887v6.491h-.72v-6.491c0-3.557-2.414-6.613-5.872-7.432-.15-.036-.261-.163-.275-.316-.015-.154.071-.3.212-.363 1.517-.675 2.496-2.181 2.496-3.836 0-1.133-.454-2.208-1.256-2.996l-.689.69c-.074.075-.174.118-.28.104-.104-.007-.2-.06-.263-.143-.017-.021-.481-.585-1.713-.585-1.209 0-1.701.571-1.721.595-.065.078-.161.126-.262.13-.121.005-.202-.032-.272-.104l-.689-.689c-.802.788-1.256 1.863-1.256 2.997 0 .398.056.792.166 1.172 1.737.76 2.955 2.496 2.955 4.51 0 1.64-.82 3.154-2.146 4.061 3.328 1.162 5.586 4.291 5.586 7.888v5.808h-.721v-5.809c0-2.577-1.267-4.891-3.279-6.281v2.09c0 2.282-1.763 4.16-3.999 4.345v2.33c.854.168 1.5.923 1.5 1.825-.001 1.025-.835 1.859-1.86 1.859zm0-2.999c-.628 0-1.14.511-1.14 1.14 0 .628.511 1.139 1.14 1.139.628 0 1.139-.511 1.139-1.139 0-.629-.511-1.14-1.139-1.14zm-3.643-9.878v2.518c0 2.007 1.633 3.64 3.64 3.64s3.64-1.633 3.64-3.64v-2.53c-.578-.312-1.206-.553-1.872-.71-.15-.036-.261-.163-.275-.317-.015-.153.071-.299.212-.362 1.517-.675 2.496-2.181 2.496-3.837 0-2.316-1.884-4.2-4.2-4.2s-4.201 1.884-4.201 4.2c0 1.656.98 3.162 2.496 3.837.141.062.226.208.212.361s-.124.281-.273.317c-.667.163-1.295.409-1.875.723zm-2.359-17.122c-.904 0-1.64.736-1.64 1.64s.736 1.64 1.64 1.64 1.64-.736 1.64-1.64-.736-1.64-1.64-1.64zm8.456 1.586 1.558 1.558c.338-.254.978-.592 1.986-.592 1.021 0 1.655.334 1.99.589l1.555-1.555c-.338-.478-1.356-1.586-3.545-1.586-2.188 0-3.206 1.107-3.544 1.586z"/><path d="m0 0h32v32h-32z" fill="none"/></svg>