<svg height="32" viewBox="0 0 2048 2048" width="32" xmlns="http://www.w3.org/2000/svg"><path d="m574 959q-73 0-132-24-60-25-102-70-42-45-65-109-23-64-23-142 0-83 23-149 23-67 67-113 43-47 105-71 62-25 139-25 73 0 132 24 58 24 99 69 40 45 62 111 21 65 21 147 0 79-22 144-23 64-65 111-43 46-103 72-61 25-136 25m7-630q-56 0-101 20-45 19-76 56-32 36-48 89-17 52-17 118 0 62 17 113 16 51 48 87 31 36 75 56 44 19 100 19 112 0 173-71 61-72 61-208 0-136-60-207-60-72-172-72m889 1463q-74 0-133-25-60-25-102-70-42-45-64-109-23-64-23-142 0-83 24-149 23-66 67-112 43-47 105-71 61-25 138-25 73 0 132 24 58 24 99 69 40 45 62 111 21 65 21 147 0 79-23 144-23 64-65 111-43 46-103 72-60 25-135 25m7-631q-56 0-100 20-45 19-76 56-32 36-49 89-17 53-17 119 0 62 17 113 17 50 48 86 31 36 76 56 44 20 99 20 113 0 174-72 60-73 60-207 0-137-60-208-60-72-172-72m59-905-926 1536h-75l927-1536z"/><path d="m574 959q-73 0-132-24-60-25-102-70-42-45-65-109-23-64-23-142 0-83 23-149 23-67 67-113 43-47 105-71 62-25 139-25 73 0 132 24 58 24 99 69 40 45 62 111 21 65 21 147 0 79-22 144-23 64-65 111-43 46-103 72-61 25-136 25m7-630q-56 0-101 20-45 19-76 56-32 36-48 89-17 52-17 118 0 62 17 113 16 51 48 87 31 36 75 56 44 19 100 19 112 0 173-71 61-72 61-208 0-136-60-207-60-72-172-72m889 1463q-74 0-133-25-60-25-102-70-42-45-64-109-23-64-23-142 0-83 24-149 23-66 67-112 43-47 105-71 61-25 138-25 73 0 132 24 58 24 99 69 40 45 62 111 21 65 21 147 0 79-23 144-23 64-65 111-43 46-103 72-60 25-135 25m7-631q-56 0-100 20-45 19-76 56-32 36-49 89-17 53-17 119 0 62 17 113 17 50 48 86 31 36 76 56 44 20 99 20 113 0 174-72 60-73 60-207 0-137-60-208-60-72-172-72m59-905-926 1536h-75l927-1536z"/></svg>